{
	"asset":{
		"generator":"Khronos glTF Blender I/O v4.5.48",
		"version":"2.0"
	},
	"extensionsUsed":[
		"KHR_materials_clearcoat",
		"KHR_materials_emissive_strength"
	],
	"scene":0,
	"scenes":[
		{
			"name":"Scene",
			"nodes":[
				0
			]
		}
	],
	"nodes":[
		{
			"mesh":0,
			"name":"pCube2"
		}
	],
	"materials":[
		{
			"emissiveFactor":[
				1,
				0.0722987949848175,
				0.040950775146484375
			],
			"extensions":{
				"KHR_materials_clearcoat":{
					"clearcoatRoughnessFactor":0
				},
				"KHR_materials_emissive_strength":{
					"emissiveStrength":2.499999523162842
				}
			},
			"name":"lambert11SG",
			"pbrMetallicRoughness":{
				"baseColorTexture":{
					"index":0
				},
				"metallicFactor":0
			}
		}
	],
	"meshes":[
		{
			"name":"pCube2_1",
			"primitives":[
				{
					"attributes":{
						"POSITION":0,
						"NORMAL":1,
						"TEXCOORD_0":2
					},
					"indices":3,
					"material":0
				}
			]
		}
	],
	"textures":[
		{
			"sampler":0,
			"source":0
		}
	],
	"images":[
		{
			"mimeType":"image/png",
			"name":"Portal_Companion_Cube",
			"uri":"Portal_Companion_Cube.png"
		}
	],
	"accessors":[
		{
			"bufferView":0,
			"componentType":5126,
			"count":2731,
			"max":[
				1.1057829856872559,
				1.1057829856872559,
				-2.6307060718536377
			],
			"min":[
				-1.1057829856872559,
				-1.1059499979019165,
				-4.842401027679443
			],
			"type":"VEC3"
		},
		{
			"bufferView":1,
			"componentType":5126,
			"count":2731,
			"type":"VEC3"
		},
		{
			"bufferView":2,
			"componentType":5126,
			"count":2731,
			"type":"VEC2"
		},
		{
			"bufferView":3,
			"componentType":5123,
			"count":6504,
			"type":"SCALAR"
		}
	],
	"bufferViews":[
		{
			"buffer":0,
			"byteLength":32772,
			"byteOffset":0,
			"target":34962
		},
		{
			"buffer":0,
			"byteLength":32772,
			"byteOffset":32772,
			"target":34962
		},
		{
			"buffer":0,
			"byteLength":21848,
			"byteOffset":65544,
			"target":34962
		},
		{
			"buffer":0,
			"byteLength":13008,
			"byteOffset":87392,
			"target":34963
		}
	],
	"samplers":[
		{
			"magFilter":9729,
			"minFilter":9987
		}
	],
	"buffers":[
		{
			"byteLength":100400,
			"uri":"comCube1.bin"
		}
	]
}
