{
	"asset":{
		"generator":"Khronos glTF Blender I/O v4.5.48",
		"version":"2.0"
	},
	"extensionsUsed":[
		"KHR_materials_clearcoat",
		"KHR_materials_emissive_strength"
	],
	"scene":0,
	"scenes":[
		{
			"name":"Scene",
			"nodes":[
				0
			]
		}
	],
	"nodes":[
		{
			"mesh":0,
			"name":"pCube2",
			"translation":[
				0.014448998495936394,
				-0.00010674678924260661,
				-3.7249014377593994
			]
		}
	],
	"materials":[
		{
			"emissiveFactor":[
				1,
				1,
				1
			],
			"emissiveTexture":{
				"index":0
			},
			"extensions":{
				"KHR_materials_clearcoat":{
					"clearcoatRoughnessFactor":0
				},
				"KHR_materials_emissive_strength":{
					"emissiveStrength":50.5
				}
			},
			"name":"lambert11SG",
			"pbrMetallicRoughness":{
				"baseColorTexture":{
					"index":1
				},
				"metallicFactor":0
			}
		}
	],
	"meshes":[
		{
			"name":"pCube2_1",
			"primitives":[
				{
					"attributes":{
						"POSITION":0,
						"NORMAL":1,
						"TEXCOORD_0":2
					},
					"indices":3,
					"material":0
				}
			]
		}
	],
	"textures":[
		{
			"sampler":0,
			"source":0
		},
		{
			"sampler":0,
			"source":0
		}
	],
	"images":[
		{
			"mimeType":"image/png",
			"name":"Portal_Companion_Cube",
			"uri":"Portal_Companion_Cube.png"
		}
	],
	"accessors":[
		{
			"bufferView":0,
			"componentType":5126,
			"count":2781,
			"max":[
				1.0913339853286743,
				1.1058896780014038,
				1.0941953659057617
			],
			"min":[
				-1.1202319860458374,
				-1.1058433055877686,
				-1.117499589920044
			],
			"type":"VEC3"
		},
		{
			"bufferView":1,
			"componentType":5126,
			"count":2781,
			"type":"VEC3"
		},
		{
			"bufferView":2,
			"componentType":5126,
			"count":2781,
			"type":"VEC2"
		},
		{
			"bufferView":3,
			"componentType":5123,
			"count":6504,
			"type":"SCALAR"
		}
	],
	"bufferViews":[
		{
			"buffer":0,
			"byteLength":33372,
			"byteOffset":0,
			"target":34962
		},
		{
			"buffer":0,
			"byteLength":33372,
			"byteOffset":33372,
			"target":34962
		},
		{
			"buffer":0,
			"byteLength":22248,
			"byteOffset":66744,
			"target":34962
		},
		{
			"buffer":0,
			"byteLength":13008,
			"byteOffset":88992,
			"target":34963
		}
	],
	"samplers":[
		{
			"magFilter":9729,
			"minFilter":9987
		}
	],
	"buffers":[
		{
			"byteLength":102000,
			"uri":"em1.bin"
		}
	]
}
