{
	"asset":{
		"generator":"Khronos glTF Blender I/O v4.5.48",
		"version":"2.0"
	},
	"scene":0,
	"scenes":[
		{
			"name":"Scene",
			"nodes":[
				5
			]
		}
	],
	"nodes":[
		{
			"mesh":0,
			"name":"\u7acb\u65b9\u4f53.002",
			"rotation":[
				0.2705981135368347,
				0.27059805393218994,
				0.6532815098762512,
				0.6532815098762512
			],
			"scale":[
				5.772052764892578,
				0.19494952261447906,
				0.19494952261447906
			]
		},
		{
			"children":[
				0
			],
			"mesh":1,
			"name":"\u67f1\u4f53",
			"rotation":[
				-0.13568508625030518,
				-0.002275946782901883,
				-0.7138322591781616,
				0.6870428919792175
			],
			"scale":[
				1.0003217458724976,
				0.4204810857772827,
				0.13470906019210815
			],
			"translation":[
				0,
				-3.649717330932617,
				0
			]
		},
		{
			"mesh":2,
			"name":"\u73af\u4f53",
			"rotation":[
				0,
				0,
				-0.7071068286895752,
				0.7071067094802856
			],
			"scale":[
				3.3386924266815186,
				1.4863024950027466,
				0.4158604145050049
			],
			"translation":[
				0,
				-5.084066867828369,
				-0.905521810054779
			]
		},
		{
			"mesh":3,
			"name":"\u73af\u4f53.001",
			"rotation":[
				0,
				0,
				-0.7071070671081543,
				0.7071065902709961
			],
			"scale":[
				0.8412166237831116,
				2.370246648788452,
				8.586501121520996
			],
			"translation":[
				0,
				-2.3162176609039307,
				0.21594905853271484
			]
		},
		{
			"children":[
				3
			],
			"mesh":4,
			"name":"\u7acb\u65b9\u4f53.001",
			"rotation":[
				0,
				-0.10916437208652496,
				0,
				0.9940237402915955
			],
			"scale":[
				0.6266576051712036,
				3.968885660171509,
				0.05349794402718544
			],
			"translation":[
				0,
				4.108737468719482,
				0.9159824252128601
			]
		},
		{
			"children":[
				1,
				2,
				4
			],
			"mesh":5,
			"name":"\u7acb\u65b9\u4f53",
			"scale":[
				0.15567785501480103,
				0.2519598603248596,
				2.0228331089019775
			],
			"translation":[
				0,
				0.9195824861526489,
				0
			]
		}
	],
	"materials":[
		{
			"doubleSided":true,
			"name":"Brass",
			"pbrMetallicRoughness":{
				"baseColorFactor":[
					1,
					0.8862749934196472,
					0.6078429818153381,
					1
				],
				"metallicFactor":0,
				"roughnessFactor":0.9577051401138306
			}
		},
		{
			"doubleSided":true,
			"name":"Material.001",
			"pbrMetallicRoughness":{
				"baseColorFactor":[
					0.8000074625015259,
					0.01796707883477211,
					0.01497959066182375,
					1
				],
				"metallicFactor":0.8853503465652466,
				"roughnessFactor":0.3280254602432251
			}
		},
		{
			"doubleSided":true,
			"name":"Material.002",
			"pbrMetallicRoughness":{
				"baseColorFactor":[
					0.008190485648810863,
					0.008190485648810863,
					0.008190485648810863,
					1
				],
				"metallicFactor":0,
				"roughnessFactor":0.6592356562614441
			}
		}
	],
	"meshes":[
		{
			"name":"\u7acb\u65b9\u4f53.002",
			"primitives":[
				{
					"attributes":{
						"POSITION":0,
						"NORMAL":1,
						"TEXCOORD_0":2
					},
					"indices":3,
					"material":0
				}
			]
		},
		{
			"name":"\u67f1\u4f53.003",
			"primitives":[
				{
					"attributes":{
						"POSITION":4,
						"NORMAL":5,
						"TEXCOORD_0":6
					},
					"indices":7,
					"material":0
				}
			]
		},
		{
			"name":"\u73af\u4f53",
			"primitives":[
				{
					"attributes":{
						"POSITION":8,
						"NORMAL":9,
						"TEXCOORD_0":10
					},
					"indices":11,
					"material":1
				}
			]
		},
		{
			"name":"\u73af\u4f53.003",
			"primitives":[
				{
					"attributes":{
						"POSITION":12,
						"NORMAL":13,
						"TEXCOORD_0":14
					},
					"indices":11,
					"material":2
				}
			]
		},
		{
			"name":"\u7acb\u65b9\u4f53.001",
			"primitives":[
				{
					"attributes":{
						"POSITION":15,
						"NORMAL":16,
						"TEXCOORD_0":17
					},
					"indices":18,
					"material":2
				}
			]
		},
		{
			"name":"\u7acb\u65b9\u4f53",
			"primitives":[
				{
					"attributes":{
						"POSITION":19,
						"NORMAL":20,
						"TEXCOORD_0":21
					},
					"indices":22,
					"material":1
				}
			]
		}
	],
	"accessors":[
		{
			"bufferView":0,
			"componentType":5126,
			"count":112,
			"max":[
				1.5879894495010376,
				1,
				11.49799633026123
			],
			"min":[
				-1.587989330291748,
				-1,
				-8.623497009277344
			],
			"type":"VEC3"
		},
		{
			"bufferView":1,
			"componentType":5126,
			"count":112,
			"type":"VEC3"
		},
		{
			"bufferView":2,
			"componentType":5126,
			"count":112,
			"type":"VEC2"
		},
		{
			"bufferView":3,
			"componentType":5123,
			"count":252,
			"type":"SCALAR"
		},
		{
			"bufferView":4,
			"componentType":5126,
			"count":72,
			"max":[
				1,
				1,
				1
			],
			"min":[
				-1,
				-1,
				-1
			],
			"type":"VEC3"
		},
		{
			"bufferView":5,
			"componentType":5126,
			"count":72,
			"type":"VEC3"
		},
		{
			"bufferView":6,
			"componentType":5126,
			"count":72,
			"type":"VEC2"
		},
		{
			"bufferView":7,
			"componentType":5123,
			"count":132,
			"type":"SCALAR"
		},
		{
			"bufferView":8,
			"componentType":5126,
			"count":534,
			"max":[
				1.25,
				0.25,
				1.25
			],
			"min":[
				-1.25,
				-0.25,
				-1.25
			],
			"type":"VEC3"
		},
		{
			"bufferView":9,
			"componentType":5126,
			"count":534,
			"type":"VEC3"
		},
		{
			"bufferView":10,
			"componentType":5126,
			"count":534,
			"type":"VEC2"
		},
		{
			"bufferView":11,
			"componentType":5123,
			"count":804,
			"type":"SCALAR"
		},
		{
			"bufferView":12,
			"componentType":5126,
			"count":534,
			"max":[
				1.25,
				0.25,
				1.25
			],
			"min":[
				-1.25,
				-0.25,
				-1.25
			],
			"type":"VEC3"
		},
		{
			"bufferView":13,
			"componentType":5126,
			"count":534,
			"type":"VEC3"
		},
		{
			"bufferView":14,
			"componentType":5126,
			"count":534,
			"type":"VEC2"
		},
		{
			"bufferView":15,
			"componentType":5126,
			"count":56,
			"max":[
				7.157995223999023,
				1,
				1
			],
			"min":[
				-7.237102508544922,
				-1,
				-1
			],
			"type":"VEC3"
		},
		{
			"bufferView":16,
			"componentType":5126,
			"count":56,
			"type":"VEC3"
		},
		{
			"bufferView":17,
			"componentType":5126,
			"count":56,
			"type":"VEC2"
		},
		{
			"bufferView":18,
			"componentType":5123,
			"count":108,
			"type":"SCALAR"
		},
		{
			"bufferView":19,
			"componentType":5126,
			"count":24,
			"max":[
				1,
				1,
				1
			],
			"min":[
				-1,
				-1,
				-1
			],
			"type":"VEC3"
		},
		{
			"bufferView":20,
			"componentType":5126,
			"count":24,
			"type":"VEC3"
		},
		{
			"bufferView":21,
			"componentType":5126,
			"count":24,
			"type":"VEC2"
		},
		{
			"bufferView":22,
			"componentType":5123,
			"count":36,
			"type":"SCALAR"
		}
	],
	"bufferViews":[
		{
			"buffer":0,
			"byteLength":1344,
			"byteOffset":0,
			"target":34962
		},
		{
			"buffer":0,
			"byteLength":1344,
			"byteOffset":1344,
			"target":34962
		},
		{
			"buffer":0,
			"byteLength":896,
			"byteOffset":2688,
			"target":34962
		},
		{
			"buffer":0,
			"byteLength":504,
			"byteOffset":3584,
			"target":34963
		},
		{
			"buffer":0,
			"byteLength":864,
			"byteOffset":4088,
			"target":34962
		},
		{
			"buffer":0,
			"byteLength":864,
			"byteOffset":4952,
			"target":34962
		},
		{
			"buffer":0,
			"byteLength":576,
			"byteOffset":5816,
			"target":34962
		},
		{
			"buffer":0,
			"byteLength":264,
			"byteOffset":6392,
			"target":34963
		},
		{
			"buffer":0,
			"byteLength":6408,
			"byteOffset":6656,
			"target":34962
		},
		{
			"buffer":0,
			"byteLength":6408,
			"byteOffset":13064,
			"target":34962
		},
		{
			"buffer":0,
			"byteLength":4272,
			"byteOffset":19472,
			"target":34962
		},
		{
			"buffer":0,
			"byteLength":1608,
			"byteOffset":23744,
			"target":34963
		},
		{
			"buffer":0,
			"byteLength":6408,
			"byteOffset":25352,
			"target":34962
		},
		{
			"buffer":0,
			"byteLength":6408,
			"byteOffset":31760,
			"target":34962
		},
		{
			"buffer":0,
			"byteLength":4272,
			"byteOffset":38168,
			"target":34962
		},
		{
			"buffer":0,
			"byteLength":672,
			"byteOffset":42440,
			"target":34962
		},
		{
			"buffer":0,
			"byteLength":672,
			"byteOffset":43112,
			"target":34962
		},
		{
			"buffer":0,
			"byteLength":448,
			"byteOffset":43784,
			"target":34962
		},
		{
			"buffer":0,
			"byteLength":216,
			"byteOffset":44232,
			"target":34963
		},
		{
			"buffer":0,
			"byteLength":288,
			"byteOffset":44448,
			"target":34962
		},
		{
			"buffer":0,
			"byteLength":288,
			"byteOffset":44736,
			"target":34962
		},
		{
			"buffer":0,
			"byteLength":192,
			"byteOffset":45024,
			"target":34962
		},
		{
			"buffer":0,
			"byteLength":72,
			"byteOffset":45216,
			"target":34963
		}
	],
	"buffers":[
		{
			"byteLength":45288,
			"uri":"testBike2.bin"
		}
	]
}
