{
	"asset":{
		"generator":"Khronos glTF Blender I/O v4.5.48",
		"version":"2.0"
	},
	"scene":0,
	"scenes":[
		{
			"name":"Scene",
			"nodes":[
				0,
				1,
				2
			]
		}
	],
	"nodes":[
		{
			"mesh":0,
			"name":"\u7acb\u65b9\u4f53",
			"scale":[
				0.15567785501480103,
				0.2519598603248596,
				2.0228331089019775
			],
			"translation":[
				0,
				0.9195824861526489,
				0
			]
		},
		{
			"mesh":1,
			"name":"\u73af\u4f53",
			"rotation":[
				0,
				0,
				-0.7071068286895752,
				0.7071068286895752
			],
			"scale":[
				0.8412164449691772,
				0.23138435184955597,
				0.8412164449691772
			],
			"translation":[
				0,
				-0.3613985776901245,
				1.8317219018936157
			]
		},
		{
			"mesh":2,
			"name":"\u73af\u4f53.001",
			"rotation":[
				0,
				0,
				-0.7071068286895752,
				0.7071068286895752
			],
			"scale":[
				0.8412164449691772,
				0.23138435184955597,
				0.8412164449691772
			],
			"translation":[
				0,
				-0.3613985776901245,
				-1.8317219018936157
			]
		}
	],
	"materials":[
		{
			"doubleSided":true,
			"name":"Material.001",
			"pbrMetallicRoughness":{
				"baseColorFactor":[
					0.8000074625015259,
					0.01796707883477211,
					0.01497959066182375,
					1
				],
				"metallicFactor":0.8853503465652466,
				"roughnessFactor":0.3280254602432251
			}
		},
		{
			"doubleSided":true,
			"name":"Material.002",
			"pbrMetallicRoughness":{
				"baseColorFactor":[
					0.008190485648810863,
					0.008190485648810863,
					0.008190485648810863,
					1
				],
				"metallicFactor":0,
				"roughnessFactor":0.6592356562614441
			}
		}
	],
	"meshes":[
		{
			"name":"\u7acb\u65b9\u4f53",
			"primitives":[
				{
					"attributes":{
						"POSITION":0,
						"NORMAL":1,
						"TEXCOORD_0":2
					},
					"indices":3,
					"material":0
				}
			]
		},
		{
			"name":"\u73af\u4f53",
			"primitives":[
				{
					"attributes":{
						"POSITION":4,
						"NORMAL":5,
						"TEXCOORD_0":6
					},
					"indices":7,
					"material":1
				}
			]
		},
		{
			"name":"\u73af\u4f53.003",
			"primitives":[
				{
					"attributes":{
						"POSITION":8,
						"NORMAL":9,
						"TEXCOORD_0":10
					},
					"indices":7,
					"material":1
				}
			]
		}
	],
	"accessors":[
		{
			"bufferView":0,
			"componentType":5126,
			"count":24,
			"max":[
				1,
				1,
				1
			],
			"min":[
				-1,
				-1,
				-1
			],
			"type":"VEC3"
		},
		{
			"bufferView":1,
			"componentType":5126,
			"count":24,
			"type":"VEC3"
		},
		{
			"bufferView":2,
			"componentType":5126,
			"count":24,
			"type":"VEC2"
		},
		{
			"bufferView":3,
			"componentType":5123,
			"count":36,
			"type":"SCALAR"
		},
		{
			"bufferView":4,
			"componentType":5126,
			"count":534,
			"max":[
				1.25,
				0.25,
				1.25
			],
			"min":[
				-1.25,
				-0.25,
				-1.25
			],
			"type":"VEC3"
		},
		{
			"bufferView":5,
			"componentType":5126,
			"count":534,
			"type":"VEC3"
		},
		{
			"bufferView":6,
			"componentType":5126,
			"count":534,
			"type":"VEC2"
		},
		{
			"bufferView":7,
			"componentType":5123,
			"count":804,
			"type":"SCALAR"
		},
		{
			"bufferView":8,
			"componentType":5126,
			"count":534,
			"max":[
				1.25,
				0.25,
				1.25
			],
			"min":[
				-1.25,
				-0.25,
				-1.25
			],
			"type":"VEC3"
		},
		{
			"bufferView":9,
			"componentType":5126,
			"count":534,
			"type":"VEC3"
		},
		{
			"bufferView":10,
			"componentType":5126,
			"count":534,
			"type":"VEC2"
		}
	],
	"bufferViews":[
		{
			"buffer":0,
			"byteLength":288,
			"byteOffset":0,
			"target":34962
		},
		{
			"buffer":0,
			"byteLength":288,
			"byteOffset":288,
			"target":34962
		},
		{
			"buffer":0,
			"byteLength":192,
			"byteOffset":576,
			"target":34962
		},
		{
			"buffer":0,
			"byteLength":72,
			"byteOffset":768,
			"target":34963
		},
		{
			"buffer":0,
			"byteLength":6408,
			"byteOffset":840,
			"target":34962
		},
		{
			"buffer":0,
			"byteLength":6408,
			"byteOffset":7248,
			"target":34962
		},
		{
			"buffer":0,
			"byteLength":4272,
			"byteOffset":13656,
			"target":34962
		},
		{
			"buffer":0,
			"byteLength":1608,
			"byteOffset":17928,
			"target":34963
		},
		{
			"buffer":0,
			"byteLength":6408,
			"byteOffset":19536,
			"target":34962
		},
		{
			"buffer":0,
			"byteLength":6408,
			"byteOffset":25944,
			"target":34962
		},
		{
			"buffer":0,
			"byteLength":4272,
			"byteOffset":32352,
			"target":34962
		}
	],
	"buffers":[
		{
			"byteLength":36624,
			"uri":"testBike1.bin"
		}
	]
}
